<?xml version="1.0" encoding="utf-8"?>
<svg version="1.1" viewBox="0 0 458.3243 398.2527" width="458.3243" height="398.2527" style="stroke:none;stroke-linecap:butt;stroke-linejoin:miter;stroke-width:1;stroke-dasharray:none;fill:#000000;fill-opacity:1;fill-rule:evenodd" font-family="Arial" font-size="15" xmlns:xlink="http://www.w3.org/1999/xlink" xmlns="http://www.w3.org/2000/svg">
  <g transform="matrix(1,0,0,1,-242.6757,-396.8228)">
    <g id="Counter work table" transform="matrix(0,1,-1,0,288,472.1443)">
      <path d="M0,0L24,0L24,15.3243L0,15.3243z" style="stroke:#000000;stroke-linecap:round;stroke-linejoin:round;fill:#55FF00;" />
    </g>
    <g id="*L* Room" transform="matrix(1,0,0,1,272.6757,426.8228)">
      <path d="M-20,-20L0,0L0,338.2527L-20,358.2527z" style="stroke-linecap:round;stroke-linejoin:round;stroke-width:0;fill:#808080;" />
      <path d="M-20,358.2527L0,338.2527L398.3243,338.2527L418.3243,358.2527z" style="stroke-linecap:round;stroke-linejoin:round;stroke-width:0;fill:#808080;" />
      <path d="M418.3243,358.2527L398.3243,338.2527L398.3243,100.1184L418.3243,80.1184z" style="stroke-linecap:round;stroke-linejoin:round;stroke-width:0;fill:#808080;" />
      <path d="M418.3243,80.1184L398.3243,100.1184L263.7617,100.1184L283.7617,80.1184z" style="stroke-linecap:round;stroke-linejoin:round;stroke-width:0;fill:#808080;" />
      <path d="M283.7617,80.1184L263.7617,100.1184L263.7617,0L283.7617,-20z" style="stroke-linecap:round;stroke-linejoin:round;stroke-width:0;fill:#808080;" />
      <path d="M283.7617,-20L263.7617,0L0,0L-20,-20z" style="stroke-linecap:round;stroke-linejoin:round;stroke-width:0;fill:#808080;" />
      <path d="M-20,-20L0,0L0,338.2527L-20,358.2527z" style="stroke:#000000;stroke-linecap:round;stroke-linejoin:round;fill:#808080;" />
      <path d="M-20,358.2527L0,338.2527L398.3243,338.2527L418.3243,358.2527z" style="stroke:#000000;stroke-linecap:round;stroke-linejoin:round;fill:#808080;" />
      <path d="M418.3243,358.2527L398.3243,338.2527L398.3243,100.1184L418.3243,80.1184z" style="stroke:#000000;stroke-linecap:round;stroke-linejoin:round;fill:#808080;" />
      <path d="M418.3243,80.1184L398.3243,100.1184L263.7617,100.1184L283.7617,80.1184z" style="stroke:#000000;stroke-linecap:round;stroke-linejoin:round;fill:#808080;" />
      <path d="M283.7617,80.1184L263.7617,100.1184L263.7617,0L283.7617,-20z" style="stroke:#000000;stroke-linecap:round;stroke-linejoin:round;fill:#808080;" />
      <path d="M283.7617,-20L263.7617,0L0,0L-20,-20z" style="stroke:#000000;stroke-linecap:round;stroke-linejoin:round;fill:#808080;" />
    </g>
    <path id="Window" d="M488.6199,765.0755L488.6199,785.0755L556.4374,785.0755L556.4374,765.0755L488.6199,765.0755z" style="stroke:#000000;stroke-linecap:round;stroke-linejoin:round;fill:#FFFFFF;" />
    <path d="M488.6199,765.0755L493.6199,765.0755L493.6199,785.0755L488.6199,785.0755L488.6199,765.0755z" style="stroke:#000000;stroke-linecap:round;stroke-linejoin:round;fill:#FFFFFF;" />
    <path d="M556.4374,765.0755L551.4374,765.0755L551.4374,785.0755L556.4374,785.0755L556.4374,765.0755z" style="stroke:#000000;stroke-linecap:round;stroke-linejoin:round;fill:#FFFFFF;" />
    <path d="M493.6199,772.0755L493.6199,778.0755L499.6199,778.0755L499.6199,772.0755L493.6199,772.0755z" style="stroke:#000000;stroke-linecap:round;stroke-linejoin:round;fill:#FFFFFF;" />
    <path d="M545.4374,772.0755L545.4374,778.0755L551.4374,778.0755L551.4374,772.0755L545.4374,772.0755z" style="stroke:#000000;stroke-linecap:round;stroke-linejoin:round;fill:#FFFFFF;" />
    <line x1="499.6199" y1="775.0755" x2="545.4374" y2="775.0755" style="stroke:#000000;stroke-linecap:round;stroke-linejoin:round;" />
    <g id="Double dresser" transform="matrix(0,1,-1,0,671,528)">
      <path d="M29.3333,29.9552C29.3333,27.7041 30.8381,25.8517 32.6667,25.8517C34.4953,25.8517 36,27.7041 36,29.9552C36,32.2063 34.4953,34.0586 32.6667,34.0586C30.8381,34.0586 29.3333,32.2063 29.3333,29.9552z" style="stroke:#000000;stroke-linecap:round;stroke-linejoin:round;fill:#55FF00;" />
      <path d="M0,0L34.3333,0L34.3333,59.5L0,59.5z" style="stroke:#000000;stroke-linecap:round;stroke-linejoin:round;fill:#55FF00;" />
      <path d="M1,1.231L32.3333,1.231L32.3333,58.269L1,58.269z" style="stroke:#000000;stroke-linecap:round;stroke-linejoin:round;fill:#55FF00;" />
      <path d="M29.3333,89.4552C29.3333,87.2041 30.8381,85.3517 32.6667,85.3517C34.4953,85.3517 36,87.2041 36,89.4552C36,91.7063 34.4953,93.5586 32.6667,93.5586C30.8381,93.5586 29.3333,91.7063 29.3333,89.4552z" style="stroke:#000000;stroke-linecap:round;stroke-linejoin:round;fill:#55FF00;" />
      <path d="M0,59.5L34.3333,59.5L34.3333,119L0,119z" style="stroke:#000000;stroke-linecap:round;stroke-linejoin:round;fill:#55FF00;" />
      <path d="M33.3333,0L33.3333,119" style="stroke:#000000;stroke-linecap:round;stroke-linejoin:round;fill:#FFFFFF;" />
      <path d="M1,60.731L32.3333,60.731L32.3333,117.769L1,117.769z" style="stroke:#000000;stroke-linecap:round;stroke-linejoin:round;fill:#55FF00;" />
    </g>
    <path id="Door" d="M536.4374,476.0168L556.4374,476.0168L556.4374,425.1998L536.4374,425.1998L536.4374,476.0168z" style="stroke-linecap:round;stroke-linejoin:round;stroke-width:0;fill:#FFFFFF;" />
    <path d="M536.4374,476.0168L536.4374,471.0168L543.1041,471.0168L543.1041,468.5168L549.7708,468.5168L549.7708,471.0168L556.4374,471.0168L556.4374,476.0168L536.4374,476.0168z" style="stroke:#000000;stroke-linecap:round;stroke-linejoin:round;fill:#FFFFFF;" />
    <path d="M536.4374,425.1998L536.4374,430.1998L543.1041,430.1998L543.1041,432.6998L549.7708,432.6998L549.7708,430.1998L556.4374,430.1998L556.4374,425.1998L536.4374,425.1998z" style="stroke:#000000;stroke-linecap:round;stroke-linejoin:round;fill:#FFFFFF;" />
    <path d="M495.6208,430.0309C495.5759,440.8812 499.8593,451.3137 507.5158,459.002C515.1723,466.6902 525.587,471.0168 536.4374,471.0168" style="stroke:#000000;stroke-linecap:round;stroke-linejoin:round;fill:none;" />
    <path d="M536.4374,430.1998L495.6208,430.0309L495.5932,436.6975L536.4098,436.8664L536.4374,430.1998z" style="stroke:#000000;stroke-linecap:round;stroke-linejoin:round;fill:#FFFFFF;" />
    <g id="Conference table 3" transform="matrix(1,0,0,1,648.1513,720)">
      <path d="M0,12C0,5.417 5.1571,0 11.4243,0C17.6915,0 22.8487,5.417 22.8487,12C22.8487,18.583 17.6915,24 11.4243,24C5.1571,24 0,18.583 0,12z" style="stroke:#000000;stroke-linecap:round;stroke-linejoin:round;fill:#55FF00;" />
    </g>
    <g id="Signle bed" transform="matrix(-1,0,0,-1,648.1513,765.0755)">
      <path d="M0,1.7106Q0,0 2.3452,0L93.8062,0Q96.1513,0 96.1513,1.7106L96.1513,163.3648Q96.1513,165.0755 93.8062,165.0755L2.3452,165.0755Q0,165.0755 0,163.3648z" style="stroke:#000000;stroke-linecap:round;stroke-linejoin:round;fill:#FF5500;" />
      <path d="M11.7258,8.5531Q11.7258,4.2766 17.5887,4.2766L78.5627,4.2766Q84.4255,4.2766 84.4255,8.5531L84.4255,34.2125Q84.4255,38.4891 78.5627,38.4891L17.5887,38.4891Q11.7258,38.4891 11.7258,34.2125L11.7258,8.5531z" style="stroke:#000000;stroke-linecap:round;stroke-linejoin:round;fill:#FF5500;" />
      <path d="M0,106.9142L31.6596,120.5992Q36.3499,122.3098 37.5225,117.1779L56.2837,47.8975Q56.2837,44.4763 59.8014,44.4763L91.461,44.4763Q96.1513,44.4763 96.1513,47.8975" style="stroke:#000000;stroke-linecap:round;stroke-linejoin:round;fill:#FF5500;" />
      <path d="M0,98.361Q0,94.9398 2.3452,93.2291L57.4563,45.3316" style="stroke:#000000;stroke-linecap:round;stroke-linejoin:round;fill:#FF5500;" />
      <path d="M30.487,119.7439L50.4208,51.3188" style="stroke:#000000;stroke-linecap:round;stroke-linejoin:round;fill:#FFFFFF;" />
    </g>
    <g id="Counter work table1" transform="matrix(0,1,-1,0,456,672)">
      <path d="M0,0L72,0L72,20.6864L0,20.6864z" style="stroke:#000000;stroke-linecap:round;stroke-linejoin:round;fill:#FF5500;" />
    </g>
    <g id="Counter work table2" transform="matrix(1,0,0,1,336,672)">
      <path d="M0,0L99.3136,0L99.3136,72L0,72z" style="stroke:#000000;stroke-linecap:round;stroke-linejoin:round;fill:#FF5500;" />
    </g>
    <g id="Round chair" transform="matrix(1,0,0,1,389.1988,607.3588)">
      <path d="M25.25,0Q50.5,0 50.5,15.1579Q50.5,22.7368 45.5598,22.7368L4.9402,22.7368Q0,22.7368 0,15.1579Q0,0 25.25,0z" style="stroke:#000000;stroke-linecap:round;stroke-linejoin:round;fill:#808080;" />
      <path d="M4.3913,29.0526C4.3913,18.6584 13.8073,10.1053 25.25,10.1053C36.6927,10.1053 46.1087,18.6584 46.1087,29.0526C46.1087,39.4469 36.6927,48 25.25,48C13.8073,48 4.3913,39.4469 4.3913,29.0526z" style="stroke:#000000;stroke-linecap:round;stroke-linejoin:round;fill:#808080;" />
    </g>
    <g id="Stage" transform="matrix(1,0,0,1,272.6757,727.3158)">
      <path d="M3.03,0L3.03,37.7597L47.47,37.7597L47.47,0z" style="stroke:#000000;stroke-linecap:round;stroke-linejoin:round;fill:#FF0000;" />
      <path d="M0,9.4399L0,28.3198L1.515,28.3198L1.515,9.4399z" style="stroke:#000000;stroke-linecap:round;stroke-linejoin:round;fill:#FF0000;" />
      <path d="M1.515,9.4399L1.515,28.3198L3.03,28.3198L3.03,9.4399z" style="stroke:#000000;stroke-linecap:round;stroke-linejoin:round;fill:#FF0000;" />
      <path d="M50.5,9.4399L50.5,28.3198L48.985,28.3198L48.985,9.4399z" style="stroke:#000000;stroke-linecap:round;stroke-linejoin:round;fill:#FF0000;" />
      <path d="M48.985,9.4399L48.985,28.3198L47.47,28.3198L47.47,9.4399z" style="stroke:#000000;stroke-linecap:round;stroke-linejoin:round;fill:#FF0000;" />
    </g>
    <g id="Counter work table3" transform="matrix(0,1,-1,0,305.0486,636)">
      <path d="M0,0L72,0L72,32.3728L0,32.3728z" style="stroke:#000000;stroke-linecap:round;stroke-linejoin:round;fill:#4DC3FF;" />
    </g>
    <g id="Counter work table4" transform="matrix(0,1,-1,0,305.0486,564)">
      <path d="M0,0L72,0L72,32.3728L0,32.3728z" style="stroke:#000000;stroke-linecap:round;stroke-linejoin:round;fill:#4DC3FF;" />
    </g>
    <g id="Counter work table5" transform="matrix(1,0,0,1,504,720)">
      <path d="M0,0L48,0L48,45.0755L0,45.0755z" style="stroke:#000000;stroke-linecap:round;stroke-linejoin:round;fill:#55FF00;" />
    </g>
    <g id="Counter work table6" transform="matrix(0,1,-1,0,527.3243,528)">
      <path d="M0,0L53.8491,0L53.8491,54.9514L0,54.9514z" style="stroke:#000000;stroke-linecap:round;stroke-linejoin:round;fill:#4DC3FF;" />
    </g>
    <g id="Counter work table7" transform="matrix(0,1,-1,0,552,528)">
      <path d="M0,0L25.7597,0L25.7597,24L0,24z" style="stroke:#000000;stroke-linecap:round;stroke-linejoin:round;fill:#4DC3FF;" />
    </g>
    <g id="Counter work table8" transform="matrix(0,1,-1,0,281.2354,464.2885)">
      <path d="M0,0L39.7115,0L39.7115,4.3379L0,4.3379z" style="stroke:#000000;stroke-linecap:round;stroke-linejoin:round;fill:#55FF00;" />
    </g>
    <g id="Conference table 31" transform="matrix(1,0,0,1,273.4462,428.2859)">
      <path d="M0,12C0,5.417 5.1571,0 11.4243,0C17.6915,0 22.8487,5.417 22.8487,12C22.8487,18.583 17.6915,24 11.4243,24C5.1571,24 0,18.583 0,12z" style="stroke:#000000;stroke-linecap:round;stroke-linejoin:round;fill:#55FF00;" />
    </g>
    <g id="Label" transform="matrix(1,0,0,1,272.6757,426.8228)">
      <rect x="0" y="0" width="24.3897" height="26.9262" style="stroke-linecap:round;stroke-linejoin:round;fill:#FFFF00;fill-opacity:0;" />
      <path d="M7.0804,17.3294L7.0804,9.706L12.5926,9.706L12.5926,10.6056L8.0893,10.6056L8.0893,12.9405L12.3066,12.9405L12.3066,13.8349L8.0893,13.8349L8.0893,16.4298L12.7695,16.4298L12.7695,17.3294zM17.3092,17.3294L16.3732,17.3294L16.3732,11.3648C16.1478,11.5798 15.8523,11.7947 15.4866,12.0096C15.1208,12.2246 14.7923,12.3858 14.5011,12.4933L14.5011,11.5884C15.0246,11.3423 15.4822,11.0441 15.874,10.694C16.2657,10.3438 16.5431,10.0041 16.706,9.6748L17.3092,9.6748z" />
    </g>
    <g id="Counter work table9" transform="matrix(0,1,-1,0,311.4093,432.6208)">
      <path d="M0,0L15.3301,0L15.3301,12.8243L0,12.8243z" style="stroke:#000000;stroke-linecap:round;stroke-linejoin:round;fill:#55FF00;" />
    </g>
    <g id="Label1" transform="matrix(1,0,0,1,292.0318,430.5369)">
      <rect x="0" y="0" width="25.9306" height="19.4979" style="stroke-linecap:round;stroke-linejoin:round;fill:#FFFF00;fill-opacity:0;" />
      <path d="M7.8634,13.1434L7.8634,6.4504L12.7028,6.4504L12.7028,7.2403L8.7491,7.2403L8.7491,9.2901L12.4517,9.2901L12.4517,10.0754L8.7491,10.0754L8.7491,12.3535L12.858,12.3535L12.858,13.1434zM18.0672,12.3535L18.0672,13.1434L13.6433,13.1434C13.6372,12.9455 13.6692,12.7553 13.7392,12.5727C13.8518,12.2714 14.0321,11.9746 14.2802,11.6824C14.5282,11.3902 14.8866,11.0524 15.3553,10.6689C16.0827,10.0723 16.5743,9.5998 16.83,9.2513C17.0856,8.9028 17.2134,8.5734 17.2134,8.2629C17.2134,7.9372 17.097,7.6626 16.8642,7.4389C16.6314,7.2151 16.3278,7.1033 15.9534,7.1033C15.5577,7.1033 15.2412,7.222 15.0038,7.4594C14.7664,7.6968 14.6462,8.0255 14.6431,8.4455L13.7985,8.3588C13.8563,7.7288 14.074,7.2486 14.4514,6.9184C14.8288,6.5882 15.3355,6.423 15.9717,6.423C16.6139,6.423 17.1221,6.6011 17.4965,6.9572C17.8709,7.3133 18.0581,7.7546 18.0581,8.2812C18.0581,8.549 18.0033,8.8123 17.8937,9.071C17.7841,9.3297 17.6023,9.6021 17.3481,9.8882C17.094,10.1743 16.6717,10.5669 16.0812,11.0661C15.5882,11.48 15.2716,11.7608 15.1316,11.9084C14.9916,12.056 14.8759,12.2044 14.7846,12.3535z" />
    </g>
    <g id="Conference table 32" transform="matrix(1,0,0,1,529.1513,557.8491)">
      <path d="M0,12C0,5.417 5.1571,0 11.4243,0C17.6915,0 22.8487,5.417 22.8487,12C22.8487,18.583 17.6915,24 11.4243,24C5.1571,24 0,18.583 0,12z" style="stroke:#000000;stroke-linecap:round;stroke-linejoin:round;fill:#FF0000;" />
    </g>
    <g id="Counter work table10" transform="matrix(0,1,-1,0,666.8723,684)">
      <path d="M0,0L24,0L24,14.5933L0,14.5933z" style="stroke:#000000;stroke-linecap:round;stroke-linejoin:round;fill:#FF0000;" />
    </g>
    <g id="Counter work table11" transform="matrix(0,1,-1,0,666.8723,660)">
      <path d="M0,0L24,0L24,14.5933L0,14.5933z" style="stroke:#000000;stroke-linecap:round;stroke-linejoin:round;fill:#FF0000;" />
    </g>
    <g id="Counter work table12" transform="matrix(0,1,-1,0,666.8723,636)">
      <path d="M0,0L24,0L24,14.5933L0,14.5933z" style="stroke:#000000;stroke-linecap:round;stroke-linejoin:round;fill:#FF0000;" />
    </g>
    <g id="Counter work table13" transform="matrix(0,1,-1,0,666.8723,612)">
      <path d="M0,0L24,0L24,14.5933L0,14.5933z" style="stroke:#000000;stroke-linecap:round;stroke-linejoin:round;fill:#FF0000;" />
    </g>
    <g id="Counter work table14" transform="matrix(0,1,-1,0,360,618.1509)">
      <path d="M0,0L53.8491,0L53.8491,54.9514L0,54.9514z" style="stroke:#000000;stroke-linecap:round;stroke-linejoin:round;fill:#4DC3FF;" />
    </g>
    <g id="Counter work table15" transform="matrix(0,1,-1,0,494.7549,426.8228)">
      <path d="M0,0L29.1772,0L29.1772,29.6782L0,29.6782z" style="stroke:#000000;stroke-linecap:round;stroke-linejoin:round;fill:#55FF00;" />
    </g>
    <g id="Label2" transform="matrix(1,0,0,1,462.6893,429.3725)">
      <rect x="0" y="0" width="32.0657" height="22.0847" style="stroke-linecap:round;stroke-linejoin:round;fill:#FFFF00;fill-opacity:0;" />
      <path d="M8.7281,15.8829L8.7281,6.3386L15.6292,6.3386L15.6292,7.4649L9.9912,7.4649L9.9912,10.3881L15.2711,10.3881L15.2711,11.5079L9.9912,11.5079L9.9912,14.7566L15.8505,14.7566L15.8505,15.8829zM20.8766,15.8829L20.8766,13.5977L16.736,13.5977L16.736,12.5235L21.0914,6.3386L22.0485,6.3386L22.0485,12.5235L23.3375,12.5235L23.3375,13.5977L22.0485,13.5977L22.0485,15.8829zM20.8766,12.5235L20.8766,8.2201L17.8883,12.5235z" />
    </g>
    <g id="Counter work table16" transform="matrix(0,1,-1,0,671,564)">
      <path d="M0,0L36,0L36,4.3379L0,4.3379z" style="stroke:#000000;stroke-linecap:round;stroke-linejoin:round;fill:#55FF00;" />
    </g>
    <g id="Square chair" transform="matrix(0,-1,1,0,310.5,611.1577)">
      <path d="M0,0L43.3588,0L43.3588,6.8062L40.5794,12.9937L2.7794,12.9937L0,6.8062z" style="stroke:#000000;stroke-linecap:round;stroke-linejoin:round;fill:#808080;" />
      <path d="M0,6.8062L43.3588,6.8062" style="stroke:#000000;stroke-linecap:round;stroke-linejoin:round;fill:#FFFFFF;" />
      <path d="M0,16.0875Q0,12.9937 2.7794,12.9937L40.5794,12.9937Q43.3588,12.9937 43.3588,16.0875L43.3588,46.4062Q43.3588,49.5 40.5794,49.5L2.7794,49.5Q0,49.5 0,46.4062z" style="stroke:#000000;stroke-linecap:round;stroke-linejoin:round;fill:#808080;" />
    </g>
    <g id="Double dresser1" transform="matrix(0,1,-1,0,388.243,427.5219)">
      <path d="M29.958,19.3409C29.958,17.8875 31.4947,16.6915 33.3623,16.6915C35.2298,16.6915 36.7666,17.8875 36.7666,19.3409C36.7666,20.7943 35.2298,21.9903 33.3623,21.9903C31.4947,21.9903 29.958,20.7943 29.958,19.3409z" style="stroke:#000000;stroke-linecap:round;stroke-linejoin:round;fill:#FF5500;" />
      <path d="M0,0L35.0644,0L35.0644,38.4169L0,38.4169z" style="stroke:#000000;stroke-linecap:round;stroke-linejoin:round;fill:#FF5500;" />
      <path d="M1.0213,0.7948L33.0219,0.7948L33.0219,37.622L1.0213,37.622z" style="stroke:#000000;stroke-linecap:round;stroke-linejoin:round;fill:#FF5500;" />
      <path d="M29.958,57.7578C29.958,56.3043 31.4947,55.1083 33.3623,55.1083C35.2298,55.1083 36.7666,56.3043 36.7666,57.7578C36.7666,59.2112 35.2298,60.4072 33.3623,60.4072C31.4947,60.4072 29.958,59.2112 29.958,57.7578z" style="stroke:#000000;stroke-linecap:round;stroke-linejoin:round;fill:#FF5500;" />
      <path d="M0,38.4169L35.0644,38.4169L35.0644,76.8337L0,76.8337z" style="stroke:#000000;stroke-linecap:round;stroke-linejoin:round;fill:#FF5500;" />
      <path d="M34.0432,0L34.0432,76.8337" style="stroke:#000000;stroke-linecap:round;stroke-linejoin:round;fill:#FFFFFF;" />
      <path d="M1.0213,39.2117L33.0219,39.2117L33.0219,76.0389L1.0213,76.0389z" style="stroke:#000000;stroke-linecap:round;stroke-linejoin:round;fill:#FF5500;" />
    </g>
    <g id="Double dresser2" transform="matrix(0,1,-1,0,465.0767,427.5219)">
      <path d="M29.958,19.3409C29.958,17.8875 31.4947,16.6915 33.3623,16.6915C35.2298,16.6915 36.7666,17.8875 36.7666,19.3409C36.7666,20.7943 35.2298,21.9903 33.3623,21.9903C31.4947,21.9903 29.958,20.7943 29.958,19.3409z" style="stroke:#000000;stroke-linecap:round;stroke-linejoin:round;fill:#FF5500;" />
      <path d="M0,0L35.0644,0L35.0644,38.4169L0,38.4169z" style="stroke:#000000;stroke-linecap:round;stroke-linejoin:round;fill:#FF5500;" />
      <path d="M1.0213,0.7948L33.0219,0.7948L33.0219,37.622L1.0213,37.622z" style="stroke:#000000;stroke-linecap:round;stroke-linejoin:round;fill:#FF5500;" />
      <path d="M29.958,57.7578C29.958,56.3043 31.4947,55.1083 33.3623,55.1083C35.2298,55.1083 36.7666,56.3043 36.7666,57.7578C36.7666,59.2112 35.2298,60.4072 33.3623,60.4072C31.4947,60.4072 29.958,59.2112 29.958,57.7578z" style="stroke:#000000;stroke-linecap:round;stroke-linejoin:round;fill:#FF5500;" />
      <path d="M0,38.4169L35.0644,38.4169L35.0644,76.8337L0,76.8337z" style="stroke:#000000;stroke-linecap:round;stroke-linejoin:round;fill:#FF5500;" />
      <path d="M34.0432,0L34.0432,76.8337" style="stroke:#000000;stroke-linecap:round;stroke-linejoin:round;fill:#FFFFFF;" />
      <path d="M1.0213,39.2117L33.0219,39.2117L33.0219,76.0389L1.0213,76.0389z" style="stroke:#000000;stroke-linecap:round;stroke-linejoin:round;fill:#FF5500;" />
    </g>
    <g id="Reed stool" transform="matrix(0,1,-1,0,336,507.799)">
      <path d="M0,3.1662Q0,0 2.8101,0L8.4302,0Q11.2402,0 11.2402,3.1662L11.2402,12.6649L2.8101,12.6649Q0,12.6649 0,9.4986z" style="stroke:#000000;stroke-linecap:round;stroke-linejoin:round;fill:#55FF00;" />
      <path d="M56.201,3.1662Q56.201,0 53.391,0L47.7709,0Q44.9608,0 44.9608,3.1662L44.9608,12.6649L53.391,12.6649Q56.201,12.6649 56.201,9.4986z" style="stroke:#000000;stroke-linecap:round;stroke-linejoin:round;fill:#55FF00;" />
      <path d="M0,60.1581Q0,63.3243 2.8101,63.3243L8.4302,63.3243Q11.2402,63.3243 11.2402,60.1581L11.2402,50.6594L2.8101,50.6594Q0,50.6594 0,53.8256z" style="stroke:#000000;stroke-linecap:round;stroke-linejoin:round;fill:#55FF00;" />
      <path d="M56.201,60.1581Q56.201,63.3243 53.391,63.3243L47.7709,63.3243Q44.9608,63.3243 44.9608,60.1581L44.9608,50.6594L53.391,50.6594Q56.201,50.6594 56.201,53.8256z" style="stroke:#000000;stroke-linecap:round;stroke-linejoin:round;fill:#55FF00;" />
      <path d="M2.8101,3.1662L53.391,3.1662L53.391,60.1581L2.8101,60.1581z" style="stroke:#000000;stroke-linecap:round;stroke-linejoin:round;fill:#55FF00;" />
      <path d="M5.6201,6.3324L5.6201,31.6621L28.1005,31.6621L28.1005,6.3324z" style="stroke:#000000;stroke-linecap:round;stroke-linejoin:round;fill:#55FF00;" />
      <path d="M50.5809,6.3324L50.5809,31.6621L28.1005,31.6621L28.1005,6.3324z" style="stroke:#000000;stroke-linecap:round;stroke-linejoin:round;fill:#55FF00;" />
      <path d="M5.6201,56.9918L5.6201,31.6621L28.1005,31.6621L28.1005,56.9918z" style="stroke:#000000;stroke-linecap:round;stroke-linejoin:round;fill:#55FF00;" />
      <path d="M50.5809,56.9918L50.5809,31.6621L28.1005,31.6621L28.1005,56.9918z" style="stroke:#000000;stroke-linecap:round;stroke-linejoin:round;fill:#55FF00;" />
      <path d="M5.6201,6.3324L5.6201,28.4959L25.2905,28.4959L25.2905,6.3324z" style="stroke:#000000;stroke-linecap:round;stroke-linejoin:round;fill:#55FF00;" />
      <path d="M50.5809,6.3324L50.5809,28.4959L30.9106,28.4959L30.9106,6.3324z" style="stroke:#000000;stroke-linecap:round;stroke-linejoin:round;fill:#55FF00;" />
      <path d="M5.6201,56.9918L5.6201,34.8284L25.2905,34.8284L25.2905,56.9918z" style="stroke:#000000;stroke-linecap:round;stroke-linejoin:round;fill:#55FF00;" />
      <path d="M50.5809,56.9918L50.5809,34.8284L30.9106,34.8284L30.9106,56.9918z" style="stroke:#000000;stroke-linecap:round;stroke-linejoin:round;fill:#55FF00;" />
      <path d="M5.6201,6.3324L5.6201,25.3297L22.4804,25.3297L22.4804,6.3324z" style="stroke:#000000;stroke-linecap:round;stroke-linejoin:round;fill:#55FF00;" />
      <path d="M50.5809,6.3324L50.5809,25.3297L33.7206,25.3297L33.7206,6.3324z" style="stroke:#000000;stroke-linecap:round;stroke-linejoin:round;fill:#55FF00;" />
      <path d="M5.6201,56.9918L5.6201,37.9946L22.4804,37.9946L22.4804,56.9918z" style="stroke:#000000;stroke-linecap:round;stroke-linejoin:round;fill:#55FF00;" />
      <path d="M50.5809,56.9918L50.5809,37.9946L33.7206,37.9946L33.7206,56.9918z" style="stroke:#000000;stroke-linecap:round;stroke-linejoin:round;fill:#55FF00;" />
      <path d="M5.6201,6.3324L5.6201,22.1635L19.6704,22.1635L19.6704,6.3324z" style="stroke:#000000;stroke-linecap:round;stroke-linejoin:round;fill:#55FF00;" />
      <path d="M50.5809,6.3324L50.5809,22.1635L36.5307,22.1635L36.5307,6.3324z" style="stroke:#000000;stroke-linecap:round;stroke-linejoin:round;fill:#55FF00;" />
      <path d="M5.6201,56.9918L5.6201,41.1608L19.6704,41.1608L19.6704,56.9918z" style="stroke:#000000;stroke-linecap:round;stroke-linejoin:round;fill:#55FF00;" />
      <path d="M50.5809,56.9918L50.5809,41.1608L36.5307,41.1608L36.5307,56.9918z" style="stroke:#000000;stroke-linecap:round;stroke-linejoin:round;fill:#55FF00;" />
      <path d="M5.6201,6.3324L5.6201,18.9973L16.8603,18.9973L16.8603,6.3324z" style="stroke:#000000;stroke-linecap:round;stroke-linejoin:round;fill:#55FF00;" />
      <path d="M50.5809,6.3324L50.5809,18.9973L39.3407,18.9973L39.3407,6.3324z" style="stroke:#000000;stroke-linecap:round;stroke-linejoin:round;fill:#55FF00;" />
      <path d="M5.6201,56.9918L5.6201,44.327L16.8603,44.327L16.8603,56.9918z" style="stroke:#000000;stroke-linecap:round;stroke-linejoin:round;fill:#55FF00;" />
      <path d="M50.5809,56.9918L50.5809,44.327L39.3407,44.327L39.3407,56.9918z" style="stroke:#000000;stroke-linecap:round;stroke-linejoin:round;fill:#55FF00;" />
      <path d="M5.6201,6.3324L5.6201,15.8311L14.0503,15.8311L14.0503,6.3324z" style="stroke:#000000;stroke-linecap:round;stroke-linejoin:round;fill:#55FF00;" />
      <path d="M50.5809,6.3324L50.5809,15.8311L42.1508,15.8311L42.1508,6.3324z" style="stroke:#000000;stroke-linecap:round;stroke-linejoin:round;fill:#55FF00;" />
      <path d="M5.6201,56.9918L5.6201,47.4932L14.0503,47.4932L14.0503,56.9918z" style="stroke:#000000;stroke-linecap:round;stroke-linejoin:round;fill:#55FF00;" />
      <path d="M50.5809,56.9918L50.5809,47.4932L42.1508,47.4932L42.1508,56.9918z" style="stroke:#000000;stroke-linecap:round;stroke-linejoin:round;fill:#55FF00;" />
    </g>
    <g id="Conference table 33" transform="matrix(1,0,0,1,326.5997,472.1443)">
      <path d="M0,15.5475C0,7.0184 2.068,0 4.5811,0C7.0942,0 9.1621,7.0184 9.1621,15.5475C9.1621,24.0766 7.0942,31.0949 4.5811,31.0949C2.068,31.0949 0,24.0766 0,15.5475z" style="stroke:#000000;stroke-linecap:round;stroke-linejoin:round;fill:#4DC3FF;" />
    </g>
    <g id="Label3" transform="matrix(1,0,0,1,613.2343,530.8544)">
      <rect x="0" y="0" width="28.7074" height="20.0509" style="stroke-linecap:round;stroke-linejoin:round;fill:#FFFF00;fill-opacity:0;" />
      <path d="M7.4038,14.8659L11.0692,5.3217L12.4299,5.3217L16.3361,14.8659L14.8973,14.8659L13.784,11.9753L9.7931,11.9753L8.745,14.8659zM10.1577,10.9467L13.3934,10.9467L12.3973,8.3034C12.0935,7.5005 11.8678,6.8408 11.7202,6.3243C11.5987,6.9363 11.4273,7.5439 11.2059,8.1472zM21.284,14.8659L20.1122,14.8659L20.1122,7.3985C19.83,7.6676 19.46,7.9367 19.0021,8.2058C18.5442,8.4749 18.133,8.6767 17.7684,8.8113L17.7684,7.6784C18.4238,7.3703 18.9967,6.997 19.4872,6.5586C19.9776,6.1203 20.3248,5.6949 20.5288,5.2826L21.284,5.2826z" />
    </g>
    <g id="Label4" transform="matrix(1,0,0,1,527.0694,530.8544)">
      <rect x="0" y="0" width="24.9306" height="20.0509" style="stroke-linecap:round;stroke-linejoin:round;fill:#FFFF00;fill-opacity:0;" />
      <path d="M4.6431,14.8659L8.3084,5.3217L9.6691,5.3217L13.5753,14.8659L12.1365,14.8659L11.0233,11.9753L7.0324,11.9753L5.9842,14.8659zM7.397,10.9467L10.6326,10.9467L9.6365,8.3034C9.3327,7.5005 9.107,6.8408 8.9595,6.3243C8.8379,6.9363 8.6665,7.5439 8.4451,8.1472zM20.2681,13.7396L20.2681,14.8659L13.9595,14.8659C13.9508,14.5838 13.9963,14.3126 14.0962,14.0521C14.2568,13.6224 14.5139,13.1993 14.8677,12.7826C15.2214,12.3659 15.7325,11.8842 16.4009,11.3373C17.4382,10.4866 18.1391,9.8128 18.5037,9.3158C18.8683,8.8188 19.0506,8.349 19.0506,7.9063C19.0506,7.4419 18.8846,7.0502 18.5526,6.7312C18.2205,6.4122 17.7876,6.2527 17.2537,6.2527C16.6895,6.2527 16.2381,6.4219 15.8996,6.7605C15.561,7.099 15.3896,7.5678 15.3852,8.1667L14.1808,8.043C14.2633,7.1446 14.5736,6.4599 15.1118,5.989C15.65,5.5181 16.3727,5.2826 17.2798,5.2826C18.1956,5.2826 18.9204,5.5365 19.4542,6.0443C19.9881,6.5521 20.255,7.1815 20.255,7.9323C20.255,8.3143 20.1769,8.6897 20.0207,9.0586C19.8644,9.4276 19.6051,9.816 19.2427,10.224C18.8802,10.632 18.278,11.1919 17.436,11.9037C16.7329,12.494 16.2815,12.8944 16.0819,13.1049C15.8822,13.3154 15.7173,13.527 15.5871,13.7396z" />
    </g>
    <g id="Label5" transform="matrix(1,0,0,1,488.6199,543.9491)">
      <rect x="0" y="0" width="24.9306" height="20.0509" style="stroke-linecap:round;stroke-linejoin:round;fill:#FFFF00;fill-opacity:0;" />
      <path d="M4.5942,14.8659L8.2596,5.3217L9.6203,5.3217L13.5265,14.8659L12.0877,14.8659L10.9744,11.9753L6.9835,11.9753L5.9354,14.8659zM7.3481,10.9467L10.5838,10.9467L9.5877,8.3034C9.2839,7.5005 9.0582,6.8408 8.9106,6.3243C8.7891,6.9363 8.6177,7.5439 8.3963,8.1472zM14.0669,12.3464L15.2388,12.1902C15.3733,12.8542 15.6023,13.3327 15.9256,13.6257C16.249,13.9187 16.6428,14.0652 17.1072,14.0652C17.6585,14.0652 18.124,13.8742 18.5037,13.4922C18.8835,13.1103 19.0734,12.6372 19.0734,12.073C19.0734,11.5348 18.8976,11.091 18.546,10.7416C18.1945,10.3922 17.7474,10.2175 17.2049,10.2175C16.9835,10.2175 16.7079,10.2609 16.3781,10.3477L16.5083,9.3191C16.5864,9.3277 16.6493,9.3321 16.6971,9.3321C17.1962,9.3321 17.6454,9.2019 18.0447,8.9415C18.444,8.681 18.6437,8.2796 18.6437,7.737C18.6437,7.3073 18.4983,6.9514 18.2075,6.6693C17.9167,6.3872 17.5413,6.2461 17.0812,6.2461C16.6255,6.2461 16.2457,6.3894 15.9419,6.6758C15.6381,6.9623 15.4427,7.392 15.3559,7.9649L14.1841,7.7566C14.3273,6.971 14.6528,6.3622 15.1606,5.9304C15.6684,5.4985 16.3,5.2826 17.0552,5.2826C17.576,5.2826 18.0556,5.3944 18.494,5.6179C18.9323,5.8414 19.2676,6.1463 19.4998,6.5326C19.732,6.9189 19.8481,7.329 19.8481,7.7631C19.8481,8.1754 19.7375,8.5508 19.5161,8.8894C19.2947,9.2279 18.9671,9.497 18.533,9.6967C19.0973,9.8269 19.5356,10.0971 19.8481,10.5072C20.1606,10.9174 20.3169,11.4306 20.3169,12.0469C20.3169,12.8803 20.0131,13.5866 19.4054,14.1661C18.7978,14.7455 18.0296,15.0352 17.1007,15.0352C16.2631,15.0352 15.5675,14.7856 15.0141,14.2865C14.4608,13.7874 14.145,13.1407 14.0669,12.3464z" />
    </g>
    <g id="Label6" transform="matrix(1,0,0,1,527.5347,559.8237)">
      <rect x="0" y="0" width="24.9306" height="20.0509" style="stroke-linecap:round;stroke-linejoin:round;fill:none;fill-opacity:0;" />
      <path d="M4.6138,14.8659L8.2791,5.3217L9.6398,5.3217L13.546,14.8659L12.1072,14.8659L10.994,11.9753L7.0031,11.9753L5.9549,14.8659zM7.3677,10.9467L10.6033,10.9467L9.6072,8.3034C9.3034,7.5005 9.0777,6.8408 8.9302,6.3243C8.8086,6.9363 8.6372,7.5439 8.4158,8.1472zM17.8364,14.8659L17.8364,12.5808L13.6958,12.5808L13.6958,11.5066L18.0513,5.3217L19.0083,5.3217L19.0083,11.5066L20.2973,11.5066L20.2973,12.5808L19.0083,12.5808L19.0083,14.8659zM17.8364,11.5066L17.8364,7.2032L14.8481,11.5066z" />
    </g>
    <g id="Label7" transform="matrix(1,0,0,1,641.9417,567.799)">
      <rect x="0" y="0" width="24.9306" height="20.0509" style="stroke-linecap:round;stroke-linejoin:round;fill:#FFFF00;fill-opacity:0;" />
      <path d="M4.5584,14.8659L8.2238,5.3217L9.5845,5.3217L13.4907,14.8659L12.0519,14.8659L10.9386,11.9753L6.9477,11.9753L5.8996,14.8659zM7.3123,10.9467L10.548,10.9467L9.5519,8.3034C9.2481,7.5005 9.0224,6.8408 8.8748,6.3243C8.7533,6.9363 8.5819,7.5439 8.3605,8.1472zM14.0246,12.3659L15.255,12.2618C15.3462,12.8607 15.5578,13.311 15.8898,13.6127C16.2218,13.9143 16.6222,14.0652 17.091,14.0652C17.6552,14.0652 18.1326,13.8525 18.5233,13.4271C18.9139,13.0018 19.1092,12.4376 19.1092,11.7344C19.1092,11.066 18.9215,10.5387 18.546,10.1524C18.1706,9.7661 17.6791,9.573 17.0714,9.573C16.6938,9.573 16.3531,9.6587 16.0493,9.8301C15.7455,10.0016 15.5068,10.224 15.3332,10.4974L14.2329,10.3542L15.1574,5.4519L19.9035,5.4519L19.9035,6.5717L16.0949,6.5717L15.5806,9.1368C16.1535,8.7375 16.7546,8.5378 17.3839,8.5378C18.2173,8.5378 18.9204,8.8264 19.4933,9.4037C20.0662,9.981 20.3527,10.7231 20.3527,11.6303C20.3527,12.494 20.1009,13.2405 19.5975,13.8698C18.9855,14.6424 18.15,15.0287 17.091,15.0287C16.2229,15.0287 15.5144,14.7856 14.9653,14.2995C14.4163,13.8134 14.1027,13.1689 14.0246,12.3659z" />
    </g>
    <g id="Label8" transform="matrix(1,0,0,1,570.362,655.3588)">
      <rect x="0" y="0" width="24.9306" height="20.0509" style="stroke-linecap:round;stroke-linejoin:round;fill:#FFFF00;fill-opacity:0;" />
      <path d="M6.0233,14.8659L6.0233,5.3217L9.604,5.3217C10.3332,5.3217 10.918,5.4182 11.3585,5.6114C11.7991,5.8045 12.1441,6.1018 12.3937,6.5033C12.6433,6.9048 12.7681,7.3247 12.7681,7.7631C12.7681,8.1711 12.6574,8.5552 12.436,8.9154C12.2147,9.2757 11.8805,9.5665 11.4334,9.7878C12.0107,9.9571 12.4545,10.2457 12.7648,10.6537C13.0751,11.0617 13.2303,11.5435 13.2303,12.099C13.2303,12.5461 13.1359,12.9616 12.9471,13.3458C12.7583,13.7299 12.525,14.0261 12.2472,14.2344C11.9694,14.4428 11.6211,14.6001 11.2023,14.7064C10.7835,14.8128 10.2702,14.8659 9.6626,14.8659zM7.2863,9.3321L9.3501,9.3321C9.91,9.3321 10.3115,9.2952 10.5545,9.2214C10.8757,9.1259 11.1177,8.9675 11.2804,8.7461C11.4432,8.5248 11.5246,8.247 11.5246,7.9128C11.5246,7.596 11.4486,7.3171 11.2967,7.0762C11.1448,6.8353 10.9278,6.6704 10.6457,6.5814C10.3635,6.4925 9.8796,6.448 9.1938,6.448L7.2863,6.448zM7.2863,13.7396L9.6626,13.7396C10.0706,13.7396 10.357,13.7244 10.522,13.6941C10.8128,13.642 11.0558,13.5552 11.2511,13.4336C11.4464,13.3121 11.607,13.1353 11.7329,12.903C11.8588,12.6708 11.9217,12.4028 11.9217,12.099C11.9217,11.7431 11.8306,11.4339 11.6483,11.1713C11.466,10.9087 11.2131,10.7242 10.8898,10.6179C10.5664,10.5116 10.1009,10.4584 9.4933,10.4584L7.2863,10.4584zM18.9074,14.8659L17.7355,14.8659L17.7355,7.3985C17.4534,7.6676 17.0834,7.9367 16.6255,8.2058C16.1676,8.4749 15.7563,8.6767 15.3917,8.8113L15.3917,7.6784C16.0471,7.3703 16.62,6.997 17.1105,6.5586C17.6009,6.1203 17.9482,5.6949 18.1522,5.2826L18.9074,5.2826z" />
    </g>
    <g id="Label9" transform="matrix(1,0,0,1,646.0694,637.9746)">
      <rect x="0" y="0" width="24.9306" height="20.0509" style="stroke-linecap:round;stroke-linejoin:round;fill:#FFFF00;fill-opacity:0;" />
      <path d="M6.6229,13.8918L6.6229,6.2683L9.483,6.2683C10.0654,6.2683 10.5326,6.3454 10.8845,6.4997C11.2363,6.654 11.5119,6.8915 11.7113,7.2121C11.9106,7.5328 12.0103,7.8682 12.0103,8.2184C12.0103,8.5443 11.9219,8.8511 11.7451,9.1388C11.5683,9.4266 11.3013,9.6588 10.9443,9.8356C11.4053,9.9708 11.7598,10.2014 12.0077,10.5273C12.2556,10.8531 12.3795,11.238 12.3795,11.6817C12.3795,12.0388 12.3041,12.3707 12.1533,12.6775C12.0025,12.9844 11.8162,13.221 11.5943,13.3874C11.3724,13.5538 11.0942,13.6794 10.7597,13.7644C10.4251,13.8493 10.0152,13.8918 9.5298,13.8918zM7.6317,9.4716L9.2802,9.4716C9.7274,9.4716 10.0481,9.4422 10.2422,9.3832C10.4988,9.3069 10.6921,9.1804 10.8221,9.0036C10.9521,8.8268 11.0171,8.6049 11.0171,8.338C11.0171,8.0849 10.9564,7.8622 10.8351,7.6698C10.7137,7.4773 10.5404,7.3456 10.315,7.2745C10.0897,7.2035 9.7031,7.1679 9.1554,7.1679L7.6317,7.1679zM7.6317,12.9922L9.5298,12.9922C9.8557,12.9922 10.0845,12.98 10.2162,12.9558C10.4485,12.9142 10.6426,12.8448 10.7987,12.7477C10.9547,12.6507 11.0829,12.5094 11.1835,12.3239C11.284,12.1385 11.3343,11.9244 11.3343,11.6817C11.3343,11.3974 11.2615,11.1504 11.1159,10.9407C10.9703,10.7309 10.7683,10.5836 10.51,10.4987C10.2518,10.4137 9.88,10.3713 9.3946,10.3713L7.6317,10.3713zM18.3077,12.9922L18.3077,13.8918L13.2687,13.8918C13.2618,13.6664 13.2982,13.4498 13.378,13.2418C13.5062,12.8986 13.7116,12.5605 13.9942,12.2277C14.2767,11.8949 14.6849,11.5101 15.2188,11.0733C16.0474,10.3938 16.6073,9.8556 16.8985,9.4586C17.1897,9.0617 17.3353,8.6864 17.3353,8.3328C17.3353,7.9618 17.2027,7.649 16.9375,7.3941C16.6723,7.1393 16.3265,7.0119 15.9,7.0119C15.4494,7.0119 15.0888,7.1471 14.8184,7.4175C14.548,7.688 14.4111,8.0624 14.4076,8.5408L13.4456,8.442C13.5114,7.7244 13.7593,7.1775 14.1892,6.8013C14.6191,6.4252 15.1963,6.2371 15.9208,6.2371C16.6523,6.2371 17.2313,6.4399 17.6577,6.8455C18.0841,7.2511 18.2973,7.7538 18.2973,8.3536C18.2973,8.6587 18.2349,8.9585 18.1101,9.2532C17.9853,9.5479 17.7782,9.8582 17.4887,10.184C17.1992,10.5099 16.7182,10.9571 16.0457,11.5257C15.484,11.9972 15.1235,12.317 14.964,12.4851C14.8045,12.6533 14.6728,12.8223 14.5688,12.9922z" />
    </g>
    <g id="Label10" transform="matrix(1,0,0,1,646.0694,720)">
      <rect x="0" y="0" width="24.9306" height="20.0509" style="stroke-linecap:round;stroke-linejoin:round;fill:#FFFF00;fill-opacity:0;" />
      <path d="M5.102,14.8659L5.102,5.3217L8.6828,5.3217C9.4119,5.3217 9.9968,5.4182 10.4373,5.6114C10.8779,5.8045 11.2229,6.1018 11.4725,6.5033C11.722,6.9048 11.8468,7.3247 11.8468,7.7631C11.8468,8.1711 11.7361,8.5552 11.5148,8.9154C11.2934,9.2757 10.9592,9.5665 10.5122,9.7878C11.0894,9.9571 11.5332,10.2457 11.8436,10.6537C12.1539,11.0617 12.3091,11.5435 12.3091,12.099C12.3091,12.5461 12.2147,12.9616 12.0259,13.3458C11.8371,13.7299 11.6038,14.0261 11.326,14.2344C11.0482,14.4428 10.6999,14.6001 10.2811,14.7064C9.8622,14.8128 9.349,14.8659 8.7414,14.8659zM6.3651,9.3321L8.4289,9.3321C8.9888,9.3321 9.3902,9.2952 9.6333,9.2214C9.9545,9.1259 10.1964,8.9675 10.3592,8.7461C10.522,8.5248 10.6033,8.247 10.6033,7.9128C10.6033,7.596 10.5274,7.3171 10.3755,7.0762C10.2236,6.8353 10.0065,6.6704 9.7244,6.5814C9.4423,6.4925 8.9584,6.448 8.2726,6.448L6.3651,6.448zM6.3651,13.7396L8.7414,13.7396C9.1493,13.7396 9.4358,13.7244 9.6007,13.6941C9.8915,13.642 10.1346,13.5552 10.3299,13.4336C10.5252,13.3121 10.6858,13.1353 10.8117,12.903C10.9375,12.6708 11.0005,12.4028 11.0005,12.099C11.0005,11.7431 10.9093,11.4339 10.727,11.1713C10.5447,10.9087 10.2919,10.7242 9.9686,10.6179C9.6452,10.5116 9.1797,10.4584 8.5721,10.4584L6.3651,10.4584zM13.5786,12.3464L14.7505,12.1902C14.885,12.8542 15.114,13.3327 15.4373,13.6257C15.7607,13.9187 16.1546,14.0652 16.619,14.0652C17.1702,14.0652 17.6357,13.8742 18.0154,13.4922C18.3952,13.1103 18.5851,12.6372 18.5851,12.073C18.5851,11.5348 18.4093,11.091 18.0578,10.7416C17.7062,10.3922 17.2592,10.2175 16.7166,10.2175C16.4953,10.2175 16.2197,10.2609 15.8898,10.3477L16.02,9.3191C16.0981,9.3277 16.1611,9.3321 16.2088,9.3321C16.7079,9.3321 17.1572,9.2019 17.5565,8.9415C17.9558,8.681 18.1554,8.2796 18.1554,7.737C18.1554,7.3073 18.01,6.9514 17.7192,6.6693C17.4284,6.3872 17.053,6.2461 16.5929,6.2461C16.1372,6.2461 15.7574,6.3894 15.4536,6.6758C15.1498,6.9623 14.9545,7.392 14.8677,7.9649L13.6958,7.7566C13.839,6.971 14.1645,6.3622 14.6723,5.9304C15.1802,5.4985 15.8117,5.2826 16.5669,5.2826C17.0877,5.2826 17.5673,5.3944 18.0057,5.6179C18.444,5.8414 18.7793,6.1463 19.0115,6.5326C19.2437,6.9189 19.3598,7.329 19.3598,7.7631C19.3598,8.1754 19.2492,8.5508 19.0278,8.8894C18.8065,9.2279 18.4788,9.497 18.0447,9.6967C18.609,9.8269 19.0473,10.0971 19.3598,10.5072C19.6723,10.9174 19.8286,11.4306 19.8286,12.0469C19.8286,12.8803 19.5248,13.5866 18.9171,14.1661C18.3095,14.7455 17.5413,15.0352 16.6125,15.0352C15.7748,15.0352 15.0792,14.7856 14.5259,14.2865C13.9725,13.7874 13.6567,13.1407 13.5786,12.3464z" />
    </g>
    <g id="Counter work table17" transform="matrix(0,1,-1,0,546.3472,724.6412)">
      <path d="M0,0L36,0L36,36.6945L0,36.6945z" style="stroke:#000000;stroke-linecap:round;stroke-linejoin:round;fill:#FF0000;" />
    </g>
    <g id="Label11" transform="matrix(1,0,0,1,515.5347,732)">
      <rect x="0" y="0" width="24.9306" height="20.0509" style="stroke-linecap:round;stroke-linejoin:round;fill:#FFFF00;fill-opacity:0;" />
      <path d="M5.1216,14.8659L5.1216,5.3217L8.7023,5.3217C9.4315,5.3217 10.0163,5.4182 10.4569,5.6114C10.8974,5.8045 11.2424,6.1018 11.492,6.5033C11.7416,6.9048 11.8664,7.3247 11.8664,7.7631C11.8664,8.1711 11.7557,8.5552 11.5343,8.9154C11.313,9.2757 10.9788,9.5665 10.5317,9.7878C11.109,9.9571 11.5528,10.2457 11.8631,10.6537C12.1734,11.0617 12.3286,11.5435 12.3286,12.099C12.3286,12.5461 12.2342,12.9616 12.0454,13.3458C11.8566,13.7299 11.6233,14.0261 11.3455,14.2344C11.0677,14.4428 10.7194,14.6001 10.3006,14.7064C9.8818,14.8128 9.3685,14.8659 8.7609,14.8659zM6.3846,9.3321L8.4484,9.3321C9.0083,9.3321 9.4098,9.2952 9.6528,9.2214C9.974,9.1259 10.216,8.9675 10.3787,8.7461C10.5415,8.5248 10.6229,8.247 10.6229,7.9128C10.6229,7.596 10.5469,7.3171 10.395,7.0762C10.2431,6.8353 10.0261,6.6704 9.744,6.5814C9.4618,6.4925 8.9779,6.448 8.2921,6.448L6.3846,6.448zM6.3846,13.7396L8.7609,13.7396C9.1689,13.7396 9.4553,13.7244 9.6203,13.6941C9.9111,13.642 10.1541,13.5552 10.3494,13.4336C10.5447,13.3121 10.7053,13.1353 10.8312,12.903C10.9571,12.6708 11.02,12.4028 11.02,12.099C11.02,11.7431 10.9289,11.4339 10.7466,11.1713C10.5643,10.9087 10.3115,10.7242 9.9881,10.6179C9.6648,10.5116 9.1993,10.4584 8.5916,10.4584L6.3846,10.4584zM17.3481,14.8659L17.3481,12.5808L13.2075,12.5808L13.2075,11.5066L17.563,5.3217L18.52,5.3217L18.52,11.5066L19.8091,11.5066L19.8091,12.5808L18.52,12.5808L18.52,14.8659zM17.3481,11.5066L17.3481,7.2032L14.3598,11.5066z" />
    </g>
    <g id="Label12" transform="matrix(1,0,0,1,382.0694,696)">
      <rect x="0" y="0" width="25.9306" height="20.0509" style="stroke-linecap:round;stroke-linejoin:round;fill:#FFFF00;fill-opacity:0;" />
      <path d="M13.1737,11.5196L14.4367,11.8386C14.1719,12.8759 13.6956,13.6669 13.0076,14.2116C12.3197,14.7563 11.4788,15.0287 10.4848,15.0287C9.4562,15.0287 8.6196,14.8193 7.9751,14.4004C7.3306,13.9816 6.8401,13.3751 6.5037,12.5808C6.1674,11.7865 5.9992,10.9336 5.9992,10.0222C5.9992,9.0283 6.1891,8.1613 6.5688,7.4213C6.9486,6.6813 7.489,6.1192 8.1899,5.7351C8.8909,5.351 9.6624,5.1589 10.5044,5.1589C11.4592,5.1589 12.2622,5.402 12.9132,5.8881C13.5643,6.3742 14.0178,7.0578 14.2739,7.9389L13.0304,8.2318C12.8091,7.5374 12.4879,7.0317 12.0669,6.7149C11.6459,6.3981 11.1164,6.2396 10.4783,6.2396C9.7448,6.2396 9.1318,6.4154 8.6391,6.767C8.1465,7.1185 7.8004,7.5905 7.6007,8.183C7.4011,8.7754 7.3013,9.3863 7.3013,10.0157C7.3013,10.8273 7.4195,11.5359 7.6561,12.1413C7.8926,12.7468 8.2605,13.1993 8.7596,13.4988C9.2587,13.7982 9.7991,13.948 10.3807,13.948C11.0881,13.948 11.6871,13.744 12.1776,13.336C12.668,12.928 13,12.3225 13.1737,11.5196zM19.9315,14.8659L18.7596,14.8659L18.7596,7.3985C18.4775,7.6676 18.1075,7.9367 17.6496,8.2058C17.1917,8.4749 16.7804,8.6767 16.4158,8.8113L16.4158,7.6784C17.0712,7.3703 17.6441,6.997 18.1346,6.5586C18.625,6.1203 18.9723,5.6949 19.1763,5.2826L19.9315,5.2826z" />
    </g>
    <g id="Label13" transform="matrix(1,0,0,1,284.5694,735.9491)">
      <rect x="0" y="0" width="25.9306" height="20.0509" style="stroke-linecap:round;stroke-linejoin:round;fill:#FFFF00;fill-opacity:0;" />
      <path d="M12.3013,11.5196L13.5643,11.8386C13.2995,12.8759 12.8232,13.6669 12.1352,14.2116C11.4473,14.7563 10.6064,15.0287 9.6125,15.0287C8.5838,15.0287 7.7472,14.8193 7.1027,14.4004C6.4582,13.9816 5.9677,13.3751 5.6313,12.5808C5.295,11.7865 5.1268,10.9336 5.1268,10.0222C5.1268,9.0283 5.3167,8.1613 5.6964,7.4213C6.0762,6.6813 6.6166,6.1192 7.3175,5.7351C8.0185,5.351 8.79,5.1589 9.632,5.1589C10.5868,5.1589 11.3898,5.402 12.0408,5.8881C12.6919,6.3742 13.1454,7.0578 13.4015,7.9389L12.158,8.2318C11.9367,7.5374 11.6155,7.0317 11.1945,6.7149C10.7735,6.3981 10.244,6.2396 9.6059,6.2396C8.8724,6.2396 8.2594,6.4154 7.7667,6.767C7.2741,7.1185 6.928,7.5905 6.7283,8.183C6.5287,8.7754 6.4289,9.3863 6.4289,10.0157C6.4289,10.8273 6.5471,11.5359 6.7837,12.1413C7.0202,12.7468 7.3881,13.1993 7.8872,13.4988C8.3863,13.7982 8.9267,13.948 9.5083,13.948C10.2158,13.948 10.8147,13.744 11.3052,13.336C11.7956,12.928 12.1276,12.3225 12.3013,11.5196zM20.8039,13.7396L20.8039,14.8659L14.4953,14.8659C14.4866,14.5838 14.5322,14.3126 14.632,14.0521C14.7926,13.6224 15.0497,13.1993 15.4035,12.7826C15.7572,12.3659 16.2683,11.8842 16.9367,11.3373C17.974,10.4866 18.675,9.8128 19.0395,9.3158C19.4041,8.8188 19.5864,8.349 19.5864,7.9063C19.5864,7.4419 19.4204,7.0502 19.0884,6.7312C18.7563,6.4122 18.3234,6.2527 17.7895,6.2527C17.2253,6.2527 16.7739,6.4219 16.4354,6.7605C16.0968,7.099 15.9254,7.5678 15.921,8.1667L14.7166,8.043C14.7991,7.1446 15.1094,6.4599 15.6476,5.989C16.1858,5.5181 16.9085,5.2826 17.8156,5.2826C18.7314,5.2826 19.4562,5.5365 19.9901,6.0443C20.5239,6.5521 20.7908,7.1815 20.7908,7.9323C20.7908,8.3143 20.7127,8.6897 20.5565,9.0586C20.4002,9.4276 20.1409,9.816 19.7785,10.224C19.4161,10.632 18.8138,11.1919 17.9718,11.9037C17.2687,12.494 16.8173,12.8944 16.6177,13.1049C16.418,13.3154 16.2531,13.527 16.1229,13.7396z" />
    </g>
    <g id="Label14" transform="matrix(1,0,0,1,319.5244,635.05)">
      <rect x="0" y="0" width="25.9306" height="20.0509" style="stroke-linecap:round;stroke-linejoin:round;fill:#FFFF00;fill-opacity:0;" />
      <path d="M12.2524,11.5196L13.5154,11.8386C13.2507,12.8759 12.7743,13.6669 12.0864,14.2116C11.3985,14.7563 10.5575,15.0287 9.5636,15.0287C8.535,15.0287 7.6984,14.8193 7.0539,14.4004C6.4093,13.9816 5.9189,13.3751 5.5825,12.5808C5.2461,11.7865 5.0779,10.9336 5.0779,10.0222C5.0779,9.0283 5.2678,8.1613 5.6476,7.4213C6.0274,6.6813 6.5677,6.1192 7.2687,5.7351C7.9697,5.351 8.7411,5.1589 9.5832,5.1589C10.538,5.1589 11.341,5.402 11.992,5.8881C12.6431,6.3742 13.0966,7.0578 13.3527,7.9389L12.1092,8.2318C11.8878,7.5374 11.5667,7.0317 11.1457,6.7149C10.7246,6.3981 10.1951,6.2396 9.5571,6.2396C8.8236,6.2396 8.2105,6.4154 7.7179,6.767C7.2253,7.1185 6.8792,7.5905 6.6795,8.183C6.4799,8.7754 6.38,9.3863 6.38,10.0157C6.38,10.8273 6.4983,11.5359 6.7348,12.1413C6.9714,12.7468 7.3392,13.1993 7.8384,13.4988C8.3375,13.7982 8.8779,13.948 9.4595,13.948C10.1669,13.948 10.7659,13.744 11.2563,13.336C11.7468,12.928 12.0788,12.3225 12.2524,11.5196zM14.6027,12.3464L15.7746,12.1902C15.9091,12.8542 16.1381,13.3327 16.4614,13.6257C16.7848,13.9187 17.1786,14.0652 17.6431,14.0652C18.1943,14.0652 18.6598,13.8742 19.0395,13.4922C19.4193,13.1103 19.6092,12.6372 19.6092,12.073C19.6092,11.5348 19.4334,11.091 19.0819,10.7416C18.7303,10.3922 18.2832,10.2175 17.7407,10.2175C17.5194,10.2175 17.2437,10.2609 16.9139,10.3477L17.0441,9.3191C17.1222,9.3277 17.1852,9.3321 17.2329,9.3321C17.732,9.3321 18.1812,9.2019 18.5806,8.9415C18.9799,8.681 19.1795,8.2796 19.1795,7.737C19.1795,7.3073 19.0341,6.9514 18.7433,6.6693C18.4525,6.3872 18.0771,6.2461 17.617,6.2461C17.1613,6.2461 16.7815,6.3894 16.4777,6.6758C16.1739,6.9623 15.9786,7.392 15.8917,7.9649L14.7199,7.7566C14.8631,6.971 15.1886,6.3622 15.6964,5.9304C16.2042,5.4985 16.8358,5.2826 17.591,5.2826C18.1118,5.2826 18.5914,5.3944 19.0298,5.6179C19.4681,5.8414 19.8034,6.1463 20.0356,6.5326C20.2678,6.9189 20.3839,7.329 20.3839,7.7631C20.3839,8.1754 20.2733,8.5508 20.0519,8.8894C19.8306,9.2279 19.5029,9.497 19.0688,9.6967C19.6331,9.8269 20.0714,10.0971 20.3839,10.5072C20.6964,10.9174 20.8527,11.4306 20.8527,12.0469C20.8527,12.8803 20.5489,13.5866 19.9412,14.1661C19.3336,14.7455 18.5654,15.0352 17.6365,15.0352C16.7989,15.0352 16.1033,14.7856 15.55,14.2865C14.9966,13.7874 14.6808,13.1407 14.6027,12.3464z" />
    </g>
    <g id="Label15" transform="matrix(1,0,0,1,275.8968,660)">
      <rect x="0" y="0" width="25.9306" height="20.0509" style="stroke-linecap:round;stroke-linejoin:round;fill:#FFFF00;fill-opacity:0;" />
      <path d="M12.272,11.5196L13.535,11.8386C13.2702,12.8759 12.7939,13.6669 12.1059,14.2116C11.418,14.7563 10.5771,15.0287 9.5832,15.0287C8.5545,15.0287 7.7179,14.8193 7.0734,14.4004C6.4289,13.9816 5.9384,13.3751 5.602,12.5808C5.2657,11.7865 5.0975,10.9336 5.0975,10.0222C5.0975,9.0283 5.2874,8.1613 5.6671,7.4213C6.0469,6.6813 6.5873,6.1192 7.2882,5.7351C7.9892,5.351 8.7607,5.1589 9.6027,5.1589C10.5575,5.1589 11.3605,5.402 12.0115,5.8881C12.6626,6.3742 13.1161,7.0578 13.3722,7.9389L12.1287,8.2318C11.9074,7.5374 11.5862,7.0317 11.1652,6.7149C10.7442,6.3981 10.2147,6.2396 9.5766,6.2396C8.8431,6.2396 8.2301,6.4154 7.7375,6.767C7.2448,7.1185 6.8987,7.5905 6.699,8.183C6.4994,8.7754 6.3996,9.3863 6.3996,10.0157C6.3996,10.8273 6.5178,11.5359 6.7544,12.1413C6.9909,12.7468 7.3588,13.1993 7.8579,13.4988C8.357,13.7982 8.8974,13.948 9.479,13.948C10.1865,13.948 10.7854,13.744 11.2759,13.336C11.7663,12.928 12.0983,12.3225 12.272,11.5196zM18.3722,14.8659L18.3722,12.5808L14.2316,12.5808L14.2316,11.5066L18.5871,5.3217L19.5441,5.3217L19.5441,11.5066L20.8332,11.5066L20.8332,12.5808L19.5441,12.5808L19.5441,14.8659zM18.3722,11.5066L18.3722,7.2032L15.3839,11.5066z" />
    </g>
    <g id="Label16" transform="matrix(1,0,0,1,275.8968,587.3079)">
      <rect x="0" y="0" width="25.9306" height="20.0509" style="stroke-linecap:round;stroke-linejoin:round;fill:#FFFF00;fill-opacity:0;" />
      <path d="M12.2166,11.5196L13.4796,11.8386C13.2149,12.8759 12.7385,13.6669 12.0506,14.2116C11.3627,14.7563 10.5217,15.0287 9.5278,15.0287C8.4992,15.0287 7.6626,14.8193 7.0181,14.4004C6.3735,13.9816 5.8831,13.3751 5.5467,12.5808C5.2103,11.7865 5.0421,10.9336 5.0421,10.0222C5.0421,9.0283 5.232,8.1613 5.6118,7.4213C5.9916,6.6813 6.5319,6.1192 7.2329,5.7351C7.9338,5.351 8.7053,5.1589 9.5473,5.1589C10.5022,5.1589 11.3052,5.402 11.9562,5.8881C12.6072,6.3742 13.0608,7.0578 13.3169,7.9389L12.0734,8.2318C11.852,7.5374 11.5309,7.0317 11.1098,6.7149C10.6888,6.3981 10.1593,6.2396 9.5213,6.2396C8.7878,6.2396 8.1747,6.4154 7.6821,6.767C7.1895,7.1185 6.8434,7.5905 6.6437,8.183C6.444,8.7754 6.3442,9.3863 6.3442,10.0157C6.3442,10.8273 6.4625,11.5359 6.699,12.1413C6.9356,12.7468 7.3034,13.1993 7.8026,13.4988C8.3017,13.7982 8.8421,13.948 9.4237,13.948C10.1311,13.948 10.7301,13.744 11.2205,13.336C11.711,12.928 12.043,12.3225 12.2166,11.5196zM14.5604,12.3659L15.7908,12.2618C15.882,12.8607 16.0936,13.311 16.4256,13.6127C16.7576,13.9143 17.158,14.0652 17.6268,14.0652C18.191,14.0652 18.6684,13.8525 19.0591,13.4271C19.4497,13.0018 19.645,12.4376 19.645,11.7344C19.645,11.066 19.4573,10.5387 19.0819,10.1524C18.7064,9.7661 18.2149,9.573 17.6072,9.573C17.2296,9.573 16.8889,9.6587 16.5851,9.8301C16.2813,10.0016 16.0426,10.224 15.869,10.4974L14.7687,10.3542L15.6932,5.4519L20.4393,5.4519L20.4393,6.5717L16.6307,6.5717L16.1164,9.1368C16.6893,8.7375 17.2904,8.5378 17.9197,8.5378C18.7531,8.5378 19.4562,8.8264 20.0291,9.4037C20.602,9.981 20.8885,10.7231 20.8885,11.6303C20.8885,12.494 20.6368,13.2405 20.1333,13.8698C19.5213,14.6424 18.6858,15.0287 17.6268,15.0287C16.7587,15.0287 16.0502,14.7856 15.5011,14.2995C14.9521,13.8134 14.6385,13.1689 14.5604,12.3659z" />
    </g>
    <g id="Label17" transform="matrix(1,0,0,1,332.3487,523.8982)">
      <rect x="0" y="0" width="25.9306" height="20.0509" style="stroke-linecap:round;stroke-linejoin:round;fill:#FFFF00;fill-opacity:0;" />
      <path d="M6.1815,14.8659L6.1815,5.3217L9.4692,5.3217C10.2114,5.3217 10.7778,5.3672 11.1684,5.4584C11.7153,5.5843 12.1819,5.8121 12.5682,6.142C13.0717,6.5673 13.4482,7.1109 13.6977,7.7728C13.9473,8.4347 14.0721,9.191 14.0721,10.0417C14.0721,10.7665 13.9875,11.4089 13.8182,11.9688C13.6489,12.5287 13.4319,12.992 13.1671,13.3588C12.9024,13.7255 12.6127,14.0142 12.298,14.2247C11.9833,14.4352 11.6036,14.5947 11.1587,14.7032C10.7138,14.8117 10.2027,14.8659 9.6255,14.8659zM7.4445,13.7396L9.4822,13.7396C10.1116,13.7396 10.6053,13.681 10.9634,13.5639C11.3214,13.4467 11.6068,13.2817 11.8195,13.0691C12.119,12.7696 12.3523,12.367 12.5194,11.8614C12.6865,11.3557 12.77,10.7427 12.77,10.0222C12.77,9.0239 12.6062,8.2568 12.2785,7.7208C11.9508,7.1847 11.5526,6.8256 11.0838,6.6433C10.7453,6.5131 10.2006,6.448 9.4497,6.448L7.4445,6.448zM19.7492,14.8659L18.5773,14.8659L18.5773,7.3985C18.2952,7.6676 17.9252,7.9367 17.4673,8.2058C17.0094,8.4749 16.5981,8.6767 16.2335,8.8113L16.2335,7.6784C16.8889,7.3703 17.4618,6.997 17.9523,6.5586C18.4427,6.1203 18.79,5.6949 18.994,5.2826L19.7492,5.2826z" />
    </g>
    <g id="Label18" transform="matrix(1,0,0,1,334.0694,479.2392)">
      <rect x="0" y="0" width="25.9306" height="20.0509" style="stroke-linecap:round;stroke-linejoin:round;fill:#FFFF00;fill-opacity:0;" />
      <path d="M5.3091,14.8659L5.3091,5.3217L8.5968,5.3217C9.339,5.3217 9.9054,5.3672 10.296,5.4584C10.8429,5.5843 11.3095,5.8121 11.6958,6.142C12.1993,6.5673 12.5758,7.1109 12.8253,7.7728C13.0749,8.4347 13.1997,9.191 13.1997,10.0417C13.1997,10.7665 13.1151,11.4089 12.9458,11.9688C12.7765,12.5287 12.5595,12.992 12.2947,13.3588C12.03,13.7255 11.7403,14.0142 11.4256,14.2247C11.1109,14.4352 10.7312,14.5947 10.2863,14.7032C9.8414,14.8117 9.3303,14.8659 8.7531,14.8659zM6.5721,13.7396L8.6098,13.7396C9.2392,13.7396 9.7329,13.681 10.091,13.5639C10.449,13.4467 10.7344,13.2817 10.9471,13.0691C11.2466,12.7696 11.4799,12.367 11.647,11.8614C11.8141,11.3557 11.8976,10.7427 11.8976,10.0222C11.8976,9.0239 11.7338,8.2568 11.4061,7.7208C11.0784,7.1847 10.6802,6.8256 10.2114,6.6433C9.8729,6.5131 9.3282,6.448 8.5773,6.448L6.5721,6.448zM20.6216,13.7396L20.6216,14.8659L14.313,14.8659C14.3043,14.5838 14.3499,14.3126 14.4497,14.0521C14.6103,13.6224 14.8674,13.1993 15.2212,12.7826C15.5749,12.3659 16.086,11.8842 16.7544,11.3373C17.7917,10.4866 18.4927,9.8128 18.8572,9.3158C19.2218,8.8188 19.4041,8.349 19.4041,7.9063C19.4041,7.4419 19.2381,7.0502 18.9061,6.7312C18.574,6.4122 18.1411,6.2527 17.6072,6.2527C17.043,6.2527 16.5916,6.4219 16.2531,6.7605C15.9145,7.099 15.7431,7.5678 15.7388,8.1667L14.5343,8.043C14.6168,7.1446 14.9271,6.4599 15.4653,5.989C16.0035,5.5181 16.7262,5.2826 17.6333,5.2826C18.5491,5.2826 19.2739,5.5365 19.8078,6.0443C20.3416,6.5521 20.6085,7.1815 20.6085,7.9323C20.6085,8.3143 20.5304,8.6897 20.3742,9.0586C20.2179,9.4276 19.9586,9.816 19.5962,10.224C19.2338,10.632 18.6315,11.1919 17.7895,11.9037C17.0864,12.494 16.635,12.8944 16.4354,13.1049C16.2357,13.3154 16.0708,13.527 15.9406,13.7396z" />
    </g>
    <g id="Plate" transform="matrix(1,0,0,1,288,464.2885)">
      <path d="M0,10.9249C0,4.9317 4.6691,0 10.3432,0C16.0173,0 20.6864,4.9317 20.6864,10.9249C20.6864,16.9182 16.0173,21.8499 10.3432,21.8499C4.6691,21.8499 0,16.9182 0,10.9249z" style="stroke:#000000;stroke-linecap:round;stroke-linejoin:round;fill:#55FF00;" />
      <path d="M4.1373,10.9249C4.1373,7.329 6.9387,4.37 10.3432,4.37C13.7477,4.37 16.5491,7.329 16.5491,10.9249C16.5491,14.5209 13.7477,17.4799 10.3432,17.4799C6.9387,17.4799 4.1373,14.5209 4.1373,10.9249z" style="stroke:#000000;stroke-linecap:round;stroke-linejoin:round;fill:#55FF00;" />
    </g>
    <g id="Plate1" transform="matrix(1,0,0,1,288,485.9491)">
      <path d="M0,10.9249C0,4.9317 4.6691,0 10.3432,0C16.0173,0 20.6864,4.9317 20.6864,10.9249C20.6864,16.9182 16.0173,21.8499 10.3432,21.8499C4.6691,21.8499 0,16.9182 0,10.9249z" style="stroke:#000000;stroke-linecap:round;stroke-linejoin:round;fill:#55FF00;" />
      <path d="M4.1373,10.9249C4.1373,7.329 6.9387,4.37 10.3432,4.37C13.7477,4.37 16.5491,7.329 16.5491,10.9249C16.5491,14.5209 13.7477,17.4799 10.3432,17.4799C6.9387,17.4799 4.1373,14.5209 4.1373,10.9249z" style="stroke:#000000;stroke-linecap:round;stroke-linejoin:round;fill:#55FF00;" />
    </g>
    <g id="Label19" transform="matrix(1,0,0,1,301.8275,475.1887)">
      <rect x="0" y="0" width="25.9306" height="24.1014" style="stroke-linecap:round;stroke-linejoin:round;fill:none;fill-opacity:0;" />
      <path d="M5.2506,16.8972L5.2506,7.341L8.5425,7.341C9.2856,7.341 9.8527,7.3867 10.2438,7.4779C10.7914,7.604 11.2585,7.8321 11.6453,8.1624C12.1494,8.5883 12.5264,9.1326 12.7763,9.7953C13.0262,10.458 13.1511,11.2152 13.1511,12.067C13.1511,12.7927 13.0664,13.4359 12.8969,13.9965C12.7274,14.5571 12.5101,15.021 12.245,15.3882C11.9799,15.7554 11.6899,16.0444 11.3748,16.2552C11.0597,16.4659 10.6795,16.6256 10.234,16.7343C9.7886,16.8429 9.2769,16.8972 8.6989,16.8972zM6.5152,15.7695L8.5555,15.7695C9.1856,15.7695 9.68,15.7109 10.0385,15.5935C10.397,15.4762 10.6827,15.3111 10.8957,15.0981C11.1955,14.7983 11.4291,14.3952 11.5964,13.8889C11.7637,13.3827 11.8474,12.7688 11.8474,12.0474C11.8474,11.0479 11.6833,10.2798 11.3552,9.7431C11.0271,9.2064 10.6284,8.8468 10.1591,8.6643C9.8201,8.5339 9.2747,8.4688 8.5229,8.4688L6.5152,8.4688zM14.4222,14.3746L15.5956,14.2181C15.7303,14.883 15.9595,15.3621 16.2833,15.6555C16.607,15.9488 17.0014,16.0955 17.4664,16.0955C18.0183,16.0955 18.4844,15.9042 18.8646,15.5218C19.2449,15.1394 19.435,14.6657 19.435,14.1008C19.435,13.5619 19.259,13.1176 18.907,12.7677C18.555,12.4179 18.1074,12.243 17.5642,12.243C17.3425,12.243 17.0666,12.2865 16.7363,12.3734L16.8667,11.3434C16.9449,11.3521 17.0079,11.3565 17.0557,11.3565C17.5555,11.3565 18.0052,11.2261 18.4051,10.9654C18.8049,10.7046 19.0048,10.3026 19.0048,9.7594C19.0048,9.3292 18.8592,8.9729 18.568,8.6904C18.2769,8.4079 17.9009,8.2667 17.4403,8.2667C16.984,8.2667 16.6038,8.4101 16.2996,8.6969C15.9954,8.9837 15.7998,9.4139 15.7129,9.9876L14.5395,9.779C14.683,8.9924 15.0089,8.3829 15.5173,7.9505C16.0258,7.5181 16.6581,7.3019 17.4142,7.3019C17.9357,7.3019 18.4159,7.4138 18.8548,7.6376C19.2937,7.8614 19.6295,8.1667 19.8619,8.5535C20.0944,8.9403 20.2107,9.3509 20.2107,9.7855C20.2107,10.1983 20.0999,10.5742 19.8782,10.9132C19.6566,11.2522 19.3285,11.5216 18.8939,11.7215C19.4589,11.8519 19.8978,12.1224 20.2107,12.5331C20.5236,12.9437 20.68,13.4576 20.68,14.0747C20.68,14.9091 20.3758,15.6163 19.7674,16.1965C19.159,16.7766 18.3898,17.0667 17.4599,17.0667C16.6211,17.0667 15.9247,16.8168 15.3707,16.3171C14.8166,15.8173 14.5004,15.1698 14.4222,14.3746z" />
    </g>
    <g id="Label20" transform="matrix(1,0,0,1,266.1012,472.9051)">
      <rect x="0" y="0" width="25.9306" height="19.4979" style="stroke-linecap:round;stroke-linejoin:round;fill:#FFFF00;fill-opacity:0;" />
      <path d="M5.2798,14.5895L5.2798,5.0452L8.5675,5.0452C9.3097,5.0452 9.8761,5.0908 10.2668,5.1819C10.8136,5.3078 11.2802,5.5356 11.6665,5.8655C12.17,6.2908 12.5465,6.8345 12.796,7.4964C13.0456,8.1582 13.1704,8.9145 13.1704,9.7652C13.1704,10.4901 13.0858,11.1324 12.9165,11.6923C12.7472,12.2522 12.5302,12.7155 12.2654,13.0823C12.0007,13.449 11.711,13.7377 11.3963,13.9482C11.0816,14.1587 10.7019,14.3182 10.257,14.4267C9.8121,14.5352 9.301,14.5895 8.7238,14.5895zM6.5428,13.4632L8.5806,13.4632C9.2099,13.4632 9.7036,13.4046 10.0617,13.2874C10.4197,13.1702 10.7051,13.0053 10.9178,12.7926C11.2173,12.4931 11.4506,12.0905 11.6177,11.5849C11.7848,11.0793 11.8683,10.4662 11.8683,9.7457C11.8683,8.7474 11.7045,7.9803 11.3768,7.4443C11.0491,6.9082 10.6509,6.5491 10.1821,6.3668C9.8436,6.2366 9.2989,6.1715 8.548,6.1715L6.5428,6.1715zM18.1899,14.5895L18.1899,12.3043L14.0493,12.3043L14.0493,11.2301L18.4048,5.0452L19.3618,5.0452L19.3618,11.2301L20.6509,11.2301L20.6509,12.3043L19.3618,12.3043L19.3618,14.5895zM18.1899,11.2301L18.1899,6.9267L15.2016,11.2301z" />
    </g>
    <g id="Label21" transform="matrix(1,0,0,1,376.3768,429.0738)">
      <rect x="0" y="0" width="31.6232" height="19.4979" style="stroke-linecap:round;stroke-linejoin:round;fill:#FFFF00;fill-opacity:0;" />
      <path d="M8.4874,14.5895L8.4874,5.0452L15.3884,5.0452L15.3884,6.1715L9.7504,6.1715L9.7504,9.0947L15.0303,9.0947L15.0303,10.2145L9.7504,10.2145L9.7504,13.4632L15.6098,13.4632L15.6098,14.5895zM16.8858,12.0699L18.0577,11.9137C18.1922,12.5777 18.4212,13.0563 18.7445,13.3492C19.0679,13.6422 19.4618,13.7887 19.9262,13.7887C20.4774,13.7887 20.9429,13.5977 21.3227,13.2158C21.7024,12.8338 21.8923,12.3607 21.8923,11.7965C21.8923,11.2583 21.7165,10.8145 21.365,10.4651C21.0134,10.1157 20.5664,9.941 20.0238,9.941C19.8025,9.941 19.5269,9.9844 19.197,10.0712L19.3272,9.0426C19.4053,9.0513 19.4683,9.0556 19.516,9.0556C20.0152,9.0556 20.4644,8.9254 20.8637,8.665C21.263,8.4046 21.4626,8.0031 21.4626,7.4605C21.4626,7.0309 21.3172,6.675 21.0264,6.3928C20.7356,6.1107 20.3602,5.9697 19.9001,5.9697C19.4444,5.9697 19.0646,6.1129 18.7608,6.3994C18.457,6.6858 18.2617,7.1155 18.1749,7.6884L17.003,7.4801C17.1462,6.6945 17.4717,6.0858 17.9796,5.6539C18.4874,5.2221 19.1189,5.0061 19.8741,5.0061C20.3949,5.0061 20.8745,5.1179 21.3129,5.3414C21.7513,5.5649 22.0865,5.8698 22.3188,6.2561C22.551,6.6424 22.6671,7.0526 22.6671,7.4866C22.6671,7.8989 22.5564,8.2744 22.335,8.6129C22.1137,8.9514 21.786,9.2205 21.352,9.4202C21.9162,9.5504 22.3546,9.8206 22.6671,10.2307C22.9796,10.6409 23.1358,11.1541 23.1358,11.7704C23.1358,12.6038 22.832,13.3102 22.2244,13.8896C21.6167,14.469 20.8485,14.7587 19.9197,14.7587C19.082,14.7587 18.3865,14.5092 17.8331,14.01C17.2797,13.5109 16.9639,12.8642 16.8858,12.0699z" />
    </g>
    <g id="Conference table 34" transform="matrix(1,0,0,1,510.7211,675.4097)">
      <path d="M0,18C0,8.1255 7.8,0 17.2789,0C26.7578,0 34.5578,8.1255 34.5578,18C34.5578,27.8745 26.7578,36 17.2789,36C7.8,36 0,27.8745 0,18z" style="stroke:#000000;stroke-linecap:round;stroke-linejoin:round;fill:#55FF00;" />
    </g>
    <g id="Label22" transform="matrix(1,0,0,1,515.5347,684)">
      <rect x="0" y="0" width="24.9306" height="20.0509" style="stroke-linecap:round;stroke-linejoin:round;fill:none;fill-opacity:0;" />
      <path d="M5.0662,14.8659L5.0662,5.3217L8.647,5.3217C9.3761,5.3217 9.961,5.4182 10.4015,5.6114C10.8421,5.8045 11.1871,6.1018 11.4367,6.5033C11.6862,6.9048 11.811,7.3247 11.811,7.7631C11.811,8.1711 11.7003,8.5552 11.479,8.9154C11.2576,9.2757 10.9234,9.5665 10.4764,9.7878C11.0536,9.9571 11.4974,10.2457 11.8078,10.6537C12.1181,11.0617 12.2733,11.5435 12.2733,12.099C12.2733,12.5461 12.1789,12.9616 11.9901,13.3458C11.8013,13.7299 11.568,14.0261 11.2902,14.2344C11.0124,14.4428 10.6641,14.6001 10.2453,14.7064C9.8264,14.8128 9.3132,14.8659 8.7056,14.8659zM6.3292,9.3321L8.3931,9.3321C8.9529,9.3321 9.3544,9.2952 9.5975,9.2214C9.9187,9.1259 10.1606,8.9675 10.3234,8.7461C10.4861,8.5248 10.5675,8.247 10.5675,7.9128C10.5675,7.596 10.4916,7.3171 10.3397,7.0762C10.1878,6.8353 9.9707,6.6704 9.6886,6.5814C9.4065,6.4925 8.9226,6.448 8.2368,6.448L6.3292,6.448zM6.3292,13.7396L8.7056,13.7396C9.1135,13.7396 9.4,13.7244 9.5649,13.6941C9.8557,13.642 10.0988,13.5552 10.2941,13.4336C10.4894,13.3121 10.65,13.1353 10.7759,12.903C10.9017,12.6708 10.9647,12.4028 10.9647,12.099C10.9647,11.7431 10.8735,11.4339 10.6912,11.1713C10.5089,10.9087 10.2561,10.7242 9.9328,10.6179C9.6094,10.5116 9.1439,10.4584 8.5363,10.4584L6.3292,10.4584zM13.5363,12.3659L14.7667,12.2618C14.8579,12.8607 15.0695,13.311 15.4015,13.6127C15.7335,13.9143 16.1339,14.0652 16.6027,14.0652C17.1669,14.0652 17.6444,13.8525 18.035,13.4271C18.4256,13.0018 18.6209,12.4376 18.6209,11.7344C18.6209,11.066 18.4332,10.5387 18.0578,10.1524C17.6823,9.7661 17.1908,9.573 16.5832,9.573C16.2055,9.573 15.8648,9.6587 15.561,9.8301C15.2572,10.0016 15.0185,10.224 14.8449,10.4974L13.7446,10.3542L14.6691,5.4519L19.4152,5.4519L19.4152,6.5717L15.6066,6.5717L15.0923,9.1368C15.6652,8.7375 16.2663,8.5378 16.8957,8.5378C17.729,8.5378 18.4321,8.8264 19.005,9.4037C19.5779,9.981 19.8644,10.7231 19.8644,11.6303C19.8644,12.494 19.6127,13.2405 19.1092,13.8698C18.4972,14.6424 17.6617,15.0287 16.6027,15.0287C15.7346,15.0287 15.0261,14.7856 14.477,14.2995C13.928,13.8134 13.6144,13.1689 13.5363,12.3659z" />
    </g>
    <g id="Counter work table18" transform="matrix(0,1,-1,0,476.6864,672)">
      <path d="M0,0L72,0L72,20.6864L0,20.6864z" style="stroke:#000000;stroke-linecap:round;stroke-linejoin:round;fill:#FF5500;" />
    </g>
    <g id="Plate2" transform="matrix(1,0,0,1,448.1379,646.201)">
      <path d="M0,10.9249C0,4.9317 4.6691,0 10.3432,0C16.0173,0 20.6864,4.9317 20.6864,10.9249C20.6864,16.9182 16.0173,21.8499 10.3432,21.8499C4.6691,21.8499 0,16.9182 0,10.9249z" style="stroke:#000000;stroke-linecap:round;stroke-linejoin:round;fill:#55FF00;" />
      <path d="M4.1373,10.9249C4.1373,7.329 6.9387,4.37 10.3432,4.37C13.7477,4.37 16.5491,7.329 16.5491,10.9249C16.5491,14.5209 13.7477,17.4799 10.3432,17.4799C6.9387,17.4799 4.1373,14.5209 4.1373,10.9249z" style="stroke:#000000;stroke-linecap:round;stroke-linejoin:round;fill:#55FF00;" />
    </g>
    <g id="Label23" transform="matrix(1,0,0,1,462.6893,635.8986)">
      <rect x="0" y="0" width="25.9306" height="24.1014" style="stroke-linecap:round;stroke-linejoin:round;fill:none;fill-opacity:0;" />
      <path d="M12.2557,13.5448L13.5187,13.8638C13.2539,14.9012 12.7776,15.6922 12.0897,16.2369C11.4017,16.7816 10.5608,17.054 9.5669,17.054C8.5382,17.054 7.7016,16.8445 7.0571,16.4257C6.4126,16.0069 5.9221,15.4003 5.5858,14.606C5.2494,13.8118 5.0812,12.9589 5.0812,12.0474C5.0812,11.0535 5.2711,10.1865 5.6509,9.4465C6.0306,8.7065 6.571,8.1444 7.272,7.7603C7.9729,7.3762 8.7444,7.1842 9.5864,7.1842C10.5413,7.1842 11.3442,7.4272 11.9953,7.9133C12.6463,8.3994 13.0999,9.083 13.3559,9.9641L12.1125,10.2571C11.8911,9.5626 11.5699,9.057 11.1489,8.7402C10.7279,8.4233 10.1984,8.2649 9.5604,8.2649C8.8269,8.2649 8.2138,8.4407 7.7212,8.7922C7.2286,9.1438 6.8824,9.6158 6.6828,10.2082C6.4831,10.8007 6.3833,11.4116 6.3833,12.0409C6.3833,12.8526 6.5016,13.5611 6.7381,14.1666C6.9746,14.7721 7.3425,15.2245 7.8416,15.524C8.3408,15.8235 8.8811,15.9732 9.4627,15.9732C10.1702,15.9732 10.7691,15.7692 11.2596,15.3612C11.75,14.9533 12.0821,14.3478 12.2557,13.5448zM20.6802,9.6842L19.5148,9.7753C19.4106,9.3152 19.2631,8.981 19.0721,8.7727C18.7552,8.4385 18.3646,8.2714 17.9002,8.2714C17.5269,8.2714 17.1993,8.3756 16.9171,8.5839C16.5482,8.853 16.2574,9.2458 16.0447,9.7623C15.8321,10.2788 15.7214,11.0145 15.7127,11.9693C15.9948,11.5396 16.3399,11.2206 16.7479,11.0123C17.1559,10.804 17.5834,10.6998 18.0304,10.6998C18.8117,10.6998 19.4768,10.9873 20.0259,11.5624C20.5749,12.1375 20.8494,12.8808 20.8494,13.7922C20.8494,14.3912 20.7203,14.9478 20.4621,15.4622C20.2038,15.9765 19.849,16.3704 19.3976,16.6438C18.9462,16.9172 18.4341,17.054 17.8611,17.054C16.8846,17.054 16.0881,16.6948 15.4718,15.9765C14.8555,15.2582 14.5473,14.0744 14.5473,12.425C14.5473,10.5804 14.8881,9.2393 15.5695,8.4016C16.1641,7.6724 16.9649,7.3079 17.9718,7.3079C18.7227,7.3079 19.3379,7.5184 19.8175,7.9394C20.2971,8.3604 20.5847,8.942 20.6802,9.6842zM15.895,13.7987C15.895,14.2024 15.9807,14.5887 16.1522,14.9576C16.3236,15.3265 16.5634,15.6076 16.8716,15.8007C17.1797,15.9938 17.5031,16.0904 17.8416,16.0904C18.3364,16.0904 18.7618,15.8908 19.1177,15.4915C19.4736,15.0921 19.6515,14.5496 19.6515,13.8638C19.6515,13.2041 19.4757,12.6844 19.1242,12.3046C18.7726,11.9248 18.3299,11.7349 17.796,11.7349C17.2665,11.7349 16.8173,11.9248 16.4484,12.3046C16.0795,12.6844 15.895,13.1824 15.895,13.7987z" />
    </g>
  </g>
</svg>